# Blender v2.79 (sub 0) OBJ File: ''
# www.blender.org
mtllib small standing picture frame.mtl
o Cylinder.001_Cylinder
v 0.057154 -0.324857 -0.377336
v -0.311221 -0.328072 -0.377336
v 0.057106 -0.319324 -0.376791
v -0.311270 -0.322539 -0.376791
v 0.057060 -0.314004 -0.375177
v -0.311316 -0.317218 -0.375177
v 0.057017 -0.309100 -0.372556
v -0.311359 -0.312315 -0.372556
v 0.056979 -0.304802 -0.369029
v -0.311396 -0.308017 -0.369029
v 0.056949 -0.301275 -0.364731
v -0.311427 -0.304490 -0.364731
v 0.056926 -0.298654 -0.359827
v -0.311450 -0.301869 -0.359827
v 0.056912 -0.297040 -0.354506
v -0.311464 -0.300255 -0.354506
v 0.056907 -0.296495 -0.348973
v -0.311469 -0.299710 -0.348973
v 0.056912 -0.297040 -0.343440
v -0.311464 -0.300255 -0.343440
v 0.056926 -0.298654 -0.338119
v -0.311450 -0.301869 -0.338119
v 0.056949 -0.301275 -0.333215
v -0.311427 -0.304490 -0.333215
v 0.056979 -0.304802 -0.328917
v -0.311396 -0.308017 -0.328917
v 0.057017 -0.309100 -0.325390
v -0.311359 -0.312315 -0.325390
v 0.057060 -0.314004 -0.322769
v -0.311316 -0.317218 -0.322769
v 0.057106 -0.319324 -0.321155
v -0.311270 -0.322539 -0.321155
v 0.057154 -0.324857 -0.320610
v -0.311221 -0.328072 -0.320610
v 0.057203 -0.330391 -0.321155
v -0.311173 -0.333605 -0.321155
v 0.057249 -0.335711 -0.322769
v -0.311127 -0.338926 -0.322769
v 0.057292 -0.340615 -0.325390
v -0.311084 -0.343829 -0.325390
v 0.057329 -0.344912 -0.328917
v -0.311046 -0.348127 -0.328917
v 0.057360 -0.348440 -0.333215
v -0.311016 -0.351654 -0.333215
v 0.057383 -0.351061 -0.338119
v -0.310993 -0.354275 -0.338119
v 0.057397 -0.352675 -0.343440
v -0.310979 -0.355889 -0.343440
v 0.057402 -0.353220 -0.348973
v -0.310974 -0.356434 -0.348973
v 0.057397 -0.352675 -0.354506
v -0.310979 -0.355889 -0.354506
v 0.057383 -0.351061 -0.359827
v -0.310993 -0.354275 -0.359827
v 0.057360 -0.348440 -0.364731
v -0.311016 -0.351654 -0.364731
v 0.057329 -0.344912 -0.369029
v -0.311046 -0.348127 -0.369029
v 0.057292 -0.340615 -0.372556
v -0.311084 -0.343829 -0.372556
v 0.057249 -0.335711 -0.375177
v -0.311127 -0.338926 -0.375177
v 0.057203 -0.330390 -0.376791
v -0.311173 -0.333605 -0.376791
vt 0.531886 0.419793
vt 0.913806 0.441124
vt 0.914742 0.443378
vt 0.530801 0.422047
vt 0.916442 0.445475
vt 0.528994 0.424144
vt 0.918855 0.447333
vt 0.526533 0.426002
vt 0.921897 0.448881
vt 0.523509 0.427550
vt 0.925455 0.450060
vt 0.520033 0.428729
vt 0.929389 0.450824
vt 0.516234 0.429493
vt 0.933536 0.451144
vt 0.512255 0.429813
vt 0.091834 0.451008
vt 0.508244 0.429677
vt 0.095875 0.450420
vt 0.504355 0.429089
vt 0.099603 0.449405
vt 0.500732 0.428074
vt 0.102869 0.447999
vt 0.497511 0.426668
vt 0.105548 0.446259
vt 0.494810 0.424928
vt 0.107544 0.444249
vt 0.492729 0.422918
vt 0.108793 0.442049
vt 0.491346 0.420718
vt 0.109262 0.439741
vt 0.490714 0.418410
vt 0.108944 0.437416
vt 0.490863 0.416085
vt 0.107858 0.435162
vt 0.491800 0.413831
vt 0.106051 0.433065
vt 0.493500 0.411734
vt 0.103590 0.431207
vt 0.495912 0.409876
vt 0.100567 0.429659
vt 0.498954 0.408328
vt 0.097091 0.428480
vt 0.502513 0.407149
vt 0.093292 0.427716
vt 0.506447 0.406385
vt 0.089312 0.427396
vt 0.510594 0.406065
vt 0.935197 0.427396
vt 0.931187 0.427532
vt 0.514777 0.406201
vt 0.927297 0.428120
vt 0.518817 0.406789
vt 0.923674 0.429135
vt 0.522546 0.407804
vt 0.920453 0.430541
vt 0.525812 0.409210
vt 0.917753 0.432281
vt 0.528490 0.410950
vt 0.915672 0.434291
vt 0.530486 0.412960
vt 0.914288 0.436491
vt 0.531736 0.415160
vt 0.068857 0.443378
vt 0.067921 0.441124
vt 0.067771 0.438799
vt 0.068403 0.436491
vt 0.069787 0.434291
vt 0.071868 0.432281
vt 0.074568 0.430541
vt 0.077789 0.429135
vt 0.081412 0.428120
vt 0.085302 0.427532
vt 0.087651 0.451144
vt 0.083504 0.450824
vt 0.079570 0.450060
vt 0.076012 0.448881
vt 0.072970 0.447333
vt 0.070558 0.445475
vt 0.913656 0.438799
vt 0.532204 0.417468
vn -0.0009 0.0980 -0.9952
vn -0.0025 0.2903 -0.9569
vn -0.0041 0.4714 -0.8819
vn -0.0055 0.6344 -0.7730
vn -0.0067 0.7730 -0.6344
vn -0.0077 0.8819 -0.4714
vn -0.0084 0.9569 -0.2903
vn -0.0087 0.9951 -0.0980
vn -0.0087 0.9951 0.0980
vn -0.0084 0.9569 0.2903
vn -0.0077 0.8819 0.4714
vn -0.0067 0.7730 0.6344
vn -0.0055 0.6344 0.7730
vn -0.0041 0.4714 0.8819
vn -0.0025 0.2903 0.9569
vn -0.0009 0.0980 0.9952
vn 0.0009 -0.0980 0.9952
vn 0.0025 -0.2903 0.9569
vn 0.0041 -0.4714 0.8819
vn 0.0055 -0.6344 0.7730
vn 0.0067 -0.7730 0.6344
vn 0.0077 -0.8819 0.4714
vn 0.0084 -0.9569 0.2903
vn 0.0087 -0.9951 0.0980
vn 0.0087 -0.9951 -0.0980
vn 0.0084 -0.9569 -0.2903
vn 0.0077 -0.8819 -0.4714
vn 0.0067 -0.7730 -0.6344
vn 0.0055 -0.6344 -0.7730
vn 0.0041 -0.4714 -0.8819
vn -1.0000 -0.0087 -0.0000
vn 0.0025 -0.2903 -0.9569
vn 0.0009 -0.0980 -0.9952
vn 1.0000 0.0087 0.0000
usemtl None
s off
f 1/1/1 2/2/1 4/3/1 3/4/1
f 3/4/2 4/3/2 6/5/2 5/6/2
f 5/6/3 6/5/3 8/7/3 7/8/3
f 7/8/4 8/7/4 10/9/4 9/10/4
f 9/10/5 10/9/5 12/11/5 11/12/5
f 11/12/6 12/11/6 14/13/6 13/14/6
f 13/14/7 14/13/7 16/15/7 15/16/7
f 15/16/8 16/15/8 18/17/8 17/18/8
f 17/18/9 18/17/9 20/19/9 19/20/9
f 19/20/10 20/19/10 22/21/10 21/22/10
f 21/22/11 22/21/11 24/23/11 23/24/11
f 23/24/12 24/23/12 26/25/12 25/26/12
f 25/26/13 26/25/13 28/27/13 27/28/13
f 27/28/14 28/27/14 30/29/14 29/30/14
f 29/30/15 30/29/15 32/31/15 31/32/15
f 31/32/16 32/31/16 34/33/16 33/34/16
f 33/34/17 34/33/17 36/35/17 35/36/17
f 35/36/18 36/35/18 38/37/18 37/38/18
f 37/38/19 38/37/19 40/39/19 39/40/19
f 39/40/20 40/39/20 42/41/20 41/42/20
f 41/42/21 42/41/21 44/43/21 43/44/21
f 43/44/22 44/43/22 46/45/22 45/46/22
f 45/46/23 46/45/23 48/47/23 47/48/23
f 47/48/24 48/49/24 50/50/24 49/51/24
f 49/51/25 50/50/25 52/52/25 51/53/25
f 51/53/26 52/52/26 54/54/26 53/55/26
f 53/55/27 54/54/27 56/56/27 55/57/27
f 55/57/28 56/56/28 58/58/28 57/59/28
f 57/59/29 58/58/29 60/60/29 59/61/29
f 59/61/30 60/60/30 62/62/30 61/63/30
f 4/64/31 2/65/31 64/66/31 62/67/31 60/68/31 58/69/31 56/70/31 54/71/31 52/72/31 50/73/31 48/47/31 46/45/31 44/43/31 42/41/31 40/39/31 38/37/31 36/35/31 34/33/31 32/31/31 30/29/31 28/27/31 26/25/31 24/23/31 22/21/31 20/19/31 18/17/31 16/74/31 14/75/31 12/76/31 10/77/31 8/78/31 6/79/31
f 61/63/32 62/62/32 64/80/32 63/81/32
f 63/81/33 64/80/33 2/2/33 1/1/33
f 1/1/34 3/4/34 5/6/34 7/8/34 9/10/34 11/12/34 13/14/34 15/16/34 17/18/34 19/20/34 21/22/34 23/24/34 25/26/34 27/28/34 29/30/34 31/32/34 33/34/34 35/36/34 37/38/34 39/40/34 41/42/34 43/44/34 45/46/34 47/48/34 49/51/34 51/53/34 53/55/34 55/57/34 57/59/34 59/61/34 61/63/34 63/81/34
o Cylinder
v 0.057154 -0.324857 0.332746
v -0.311221 -0.328072 0.332746
v 0.057106 -0.319324 0.333291
v -0.311270 -0.322539 0.333291
v 0.057060 -0.314004 0.334905
v -0.311316 -0.317218 0.334905
v 0.057017 -0.309100 0.337526
v -0.311359 -0.312315 0.337526
v 0.056979 -0.304802 0.341053
v -0.311396 -0.308017 0.341053
v 0.056949 -0.301275 0.345352
v -0.311427 -0.304490 0.345352
v 0.056926 -0.298654 0.350255
v -0.311450 -0.301869 0.350255
v 0.056912 -0.297040 0.355576
v -0.311464 -0.300255 0.355576
v 0.056907 -0.296495 0.361109
v -0.311469 -0.299710 0.361109
v 0.056912 -0.297040 0.366643
v -0.311464 -0.300255 0.366643
v 0.056926 -0.298654 0.371964
v -0.311450 -0.301869 0.371964
v 0.056949 -0.301275 0.376867
v -0.311427 -0.304490 0.376867
v 0.056979 -0.304802 0.381165
v -0.311396 -0.308017 0.381165
v 0.057017 -0.309100 0.384693
v -0.311359 -0.312315 0.384693
v 0.057060 -0.314004 0.387314
v -0.311316 -0.317218 0.387314
v 0.057106 -0.319324 0.388928
v -0.311270 -0.322539 0.388928
v 0.057154 -0.324857 0.389473
v -0.311221 -0.328072 0.389473
v 0.057203 -0.330391 0.388928
v -0.311173 -0.333605 0.388928
v 0.057249 -0.335711 0.387314
v -0.311127 -0.338926 0.387314
v 0.057292 -0.340615 0.384693
v -0.311084 -0.343829 0.384693
v 0.057329 -0.344912 0.381165
v -0.311046 -0.348127 0.381165
v 0.057360 -0.348440 0.376867
v -0.311016 -0.351654 0.376867
v 0.057383 -0.351061 0.371964
v -0.310993 -0.354275 0.371964
v 0.057397 -0.352675 0.366643
v -0.310979 -0.355889 0.366643
v 0.057402 -0.353220 0.361109
v -0.310974 -0.356434 0.361109
v 0.057397 -0.352675 0.355576
v -0.310979 -0.355889 0.355576
v 0.057383 -0.351061 0.350255
v -0.310993 -0.354275 0.350255
v 0.057360 -0.348440 0.345352
v -0.311016 -0.351654 0.345352
v 0.057329 -0.344912 0.341053
v -0.311046 -0.348127 0.341053
v 0.057292 -0.340615 0.337526
v -0.311084 -0.343829 0.337526
v 0.057249 -0.335711 0.334905
v -0.311127 -0.338926 0.334905
v 0.057203 -0.330390 0.333291
v -0.311173 -0.333605 0.333291
vt 0.531886 0.419793
vt 0.913806 0.441124
vt 0.914742 0.443378
vt 0.530801 0.422047
vt 0.916442 0.445475
vt 0.528994 0.424144
vt 0.918855 0.447333
vt 0.526533 0.426002
vt 0.921897 0.448881
vt 0.523509 0.427550
vt 0.925455 0.450060
vt 0.520033 0.428729
vt 0.929389 0.450824
vt 0.516234 0.429493
vt 0.933536 0.451144
vt 0.512255 0.429813
vt 0.091834 0.451008
vt 0.508244 0.429677
vt 0.095875 0.450420
vt 0.504355 0.429089
vt 0.099603 0.449405
vt 0.500732 0.428074
vt 0.102869 0.447999
vt 0.497511 0.426668
vt 0.105548 0.446259
vt 0.494810 0.424928
vt 0.107544 0.444249
vt 0.492729 0.422918
vt 0.108793 0.442049
vt 0.491346 0.420718
vt 0.109262 0.439741
vt 0.490714 0.418410
vt 0.108944 0.437416
vt 0.490863 0.416085
vt 0.107858 0.435162
vt 0.491800 0.413831
vt 0.106051 0.433065
vt 0.493500 0.411734
vt 0.103590 0.431207
vt 0.495912 0.409876
vt 0.100567 0.429659
vt 0.498954 0.408328
vt 0.097091 0.428480
vt 0.502513 0.407149
vt 0.093292 0.427716
vt 0.506447 0.406385
vt 0.089312 0.427396
vt 0.510594 0.406065
vt 0.935197 0.427396
vt 0.931187 0.427532
vt 0.514777 0.406201
vt 0.927297 0.428120
vt 0.518817 0.406789
vt 0.923674 0.429135
vt 0.522546 0.407804
vt 0.920453 0.430541
vt 0.525812 0.409210
vt 0.917753 0.432281
vt 0.528490 0.410950
vt 0.915672 0.434291
vt 0.530486 0.412960
vt 0.914288 0.436491
vt 0.531736 0.415160
vt 0.068857 0.443378
vt 0.067921 0.441124
vt 0.067771 0.438799
vt 0.068403 0.436491
vt 0.069787 0.434291
vt 0.071868 0.432281
vt 0.074568 0.430541
vt 0.077789 0.429135
vt 0.081412 0.428120
vt 0.085302 0.427532
vt 0.087651 0.451144
vt 0.083504 0.450824
vt 0.079570 0.450060
vt 0.076012 0.448881
vt 0.072970 0.447333
vt 0.070558 0.445475
vt 0.913656 0.438799
vt 0.532204 0.417468
vn -0.0009 0.0980 -0.9952
vn -0.0025 0.2903 -0.9569
vn -0.0041 0.4714 -0.8819
vn -0.0055 0.6344 -0.7730
vn -0.0067 0.7730 -0.6344
vn -0.0077 0.8819 -0.4714
vn -0.0084 0.9569 -0.2903
vn -0.0087 0.9951 -0.0980
vn -0.0087 0.9951 0.0980
vn -0.0084 0.9569 0.2903
vn -0.0077 0.8819 0.4714
vn -0.0067 0.7730 0.6344
vn -0.0055 0.6344 0.7730
vn -0.0041 0.4714 0.8819
vn -0.0025 0.2903 0.9569
vn -0.0009 0.0980 0.9952
vn 0.0009 -0.0980 0.9952
vn 0.0025 -0.2903 0.9569
vn 0.0041 -0.4714 0.8819
vn 0.0055 -0.6344 0.7730
vn 0.0067 -0.7730 0.6344
vn 0.0077 -0.8819 0.4714
vn 0.0084 -0.9569 0.2903
vn 0.0087 -0.9951 0.0980
vn 0.0087 -0.9951 -0.0980
vn 0.0084 -0.9569 -0.2903
vn 0.0077 -0.8819 -0.4714
vn 0.0067 -0.7730 -0.6344
vn 0.0055 -0.6344 -0.7730
vn 0.0041 -0.4714 -0.8819
vn -1.0000 -0.0087 -0.0000
vn 0.0025 -0.2903 -0.9569
vn 0.0009 -0.0980 -0.9952
vn 1.0000 0.0087 0.0000
usemtl None
s off
f 65/82/35 66/83/35 68/84/35 67/85/35
f 67/85/36 68/84/36 70/86/36 69/87/36
f 69/87/37 70/86/37 72/88/37 71/89/37
f 71/89/38 72/88/38 74/90/38 73/91/38
f 73/91/39 74/90/39 76/92/39 75/93/39
f 75/93/40 76/92/40 78/94/40 77/95/40
f 77/95/41 78/94/41 80/96/41 79/97/41
f 79/97/42 80/96/42 82/98/42 81/99/42
f 81/99/43 82/98/43 84/100/43 83/101/43
f 83/101/44 84/100/44 86/102/44 85/103/44
f 85/103/45 86/102/45 88/104/45 87/105/45
f 87/105/46 88/104/46 90/106/46 89/107/46
f 89/107/47 90/106/47 92/108/47 91/109/47
f 91/109/48 92/108/48 94/110/48 93/111/48
f 93/111/49 94/110/49 96/112/49 95/113/49
f 95/113/50 96/112/50 98/114/50 97/115/50
f 97/115/51 98/114/51 100/116/51 99/117/51
f 99/117/52 100/116/52 102/118/52 101/119/52
f 101/119/53 102/118/53 104/120/53 103/121/53
f 103/121/54 104/120/54 106/122/54 105/123/54
f 105/123/55 106/122/55 108/124/55 107/125/55
f 107/125/56 108/124/56 110/126/56 109/127/56
f 109/127/57 110/126/57 112/128/57 111/129/57
f 111/129/58 112/130/58 114/131/58 113/132/58
f 113/132/59 114/131/59 116/133/59 115/134/59
f 115/134/60 116/133/60 118/135/60 117/136/60
f 117/136/61 118/135/61 120/137/61 119/138/61
f 119/138/62 120/137/62 122/139/62 121/140/62
f 121/140/63 122/139/63 124/141/63 123/142/63
f 123/142/64 124/141/64 126/143/64 125/144/64
f 68/145/65 66/146/65 128/147/65 126/148/65 124/149/65 122/150/65 120/151/65 118/152/65 116/153/65 114/154/65 112/128/65 110/126/65 108/124/65 106/122/65 104/120/65 102/118/65 100/116/65 98/114/65 96/112/65 94/110/65 92/108/65 90/106/65 88/104/65 86/102/65 84/100/65 82/98/65 80/155/65 78/156/65 76/157/65 74/158/65 72/159/65 70/160/65
f 125/144/66 126/143/66 128/161/66 127/162/66
f 127/162/67 128/161/67 66/83/67 65/82/67
f 65/82/68 67/85/68 69/87/68 71/89/68 73/91/68 75/93/68 77/95/68 79/97/68 81/99/68 83/101/68 85/103/68 87/105/68 89/107/68 91/109/68 93/111/68 95/113/68 97/115/68 99/117/68 101/119/68 103/121/68 105/123/68 107/125/68 109/127/68 111/129/68 113/132/68 115/134/68 117/136/68 119/138/68 121/140/68 123/142/68 125/144/68 127/162/68
o centre_Cube.002
v -0.251927 0.813828 -0.404070
v 0.079496 -0.342423 -0.404070
v 0.079496 -0.342423 0.404070
v -0.251927 0.813828 0.404070
vt 0.730801 0.138000
vt 0.141913 0.134159
vt 0.141913 0.969651
vt 0.730801 0.969651
vn -0.9613 -0.2755 0.0000
usemtl None_grandpacapture.PNG
s off
f 130/163/69 131/164/69 132/165/69 129/166/69
o cadre_Cube.001
v 0.046077 -0.362625 0.415275
v -0.290282 0.810847 0.415275
v 0.046077 -0.362625 -0.415275
v -0.290282 0.810847 -0.415275
v 0.107493 -0.345021 0.415275
v -0.228867 0.828451 0.415275
v 0.107493 -0.345021 -0.415275
v -0.228867 0.828451 -0.415275
v -0.228867 0.828451 -0.415275
v 0.107493 -0.345021 -0.415275
v 0.107493 -0.345021 0.415275
v -0.228867 0.828451 0.415275
v -0.229900 0.803622 -0.390233
v 0.093464 -0.324510 -0.390233
v 0.093464 -0.324510 0.390233
v -0.229900 0.803622 0.390233
v -0.275456 0.790564 -0.390233
v 0.047908 -0.337568 -0.390233
v 0.047908 -0.337568 0.390233
v -0.275456 0.790564 0.390233
vt 0.288993 0.502937
vt 0.064939 0.503546
vt 0.065548 0.969692
vt 0.289601 0.969083
vt 0.288993 0.502937
vt 0.064939 0.503546
vt 0.065548 0.969692
vt 0.289601 0.969083
vt 0.288993 0.502937
vt 0.513047 0.502329
vt 0.513047 0.502329
vt 0.288993 0.502937
vt 0.288993 0.502937
vt 0.064939 0.503546
vt 0.064331 0.037401
vt 0.288384 0.036792
vt 0.513655 0.968474
vt 0.513047 0.502329
vt 0.288384 0.036792
vt 0.512438 0.036183
vt 0.506217 0.445187
vt 0.295674 0.445759
vt 0.288993 0.502937
vt 0.288993 0.502937
vt 0.288993 0.502937
vt 0.288993 0.502937
vt 0.288993 0.502937
vt 0.064939 0.503546
vt 0.064939 0.503546
vt 0.072229 0.912513
vt 0.282771 0.911941
vt 0.282320 0.566171
vt 0.071777 0.566742
vt 0.064939 0.503546
vt 0.071620 0.446368
vt 0.282163 0.445796
vt 0.513047 0.502329
vt 0.506217 0.445187
vt 0.295674 0.445759
vt 0.071620 0.446368
vt 0.282163 0.445796
vt 0.282828 0.955046
vt 0.072285 0.955618
vt 0.071713 0.517583
vt 0.282256 0.517011
vt 0.072229 0.912513
vt 0.071777 0.566742
vt 0.072229 0.912513
vt 0.282771 0.911941
vt 0.282320 0.566171
vt 0.071777 0.566742
vt 0.282771 0.911941
vt 0.282320 0.566171
vn -0.9613 -0.2755 0.0000
vn 0.0000 0.0000 -1.0000
vn 0.0000 0.0000 1.0000
vn 0.2755 -0.9613 0.0000
vn -0.2755 0.9613 0.0000
vn 0.9991 -0.0416 0.0000
vn 0.9174 0.2630 0.2986
vn 0.9174 0.2630 -0.2986
vn 0.8254 0.5645 0.0000
vn 0.9613 0.2755 0.0000
usemtl None
s off
f 133/167/70 134/168/70 136/169/70 135/170/70
f 135/171/71 136/172/71 140/173/71 139/174/71
f 140/175/72 138/176/72 144/177/72 141/178/72
f 137/179/72 138/180/72 134/181/72 133/182/72
f 135/171/73 139/174/73 137/183/73 133/184/73
f 140/175/74 136/185/74 134/186/74 138/176/74
f 141/178/75 144/177/75 148/187/75 145/188/75
f 139/189/72 140/175/72 141/178/72 142/190/72
f 138/191/72 137/179/72 143/192/72 144/193/72
f 137/179/72 139/194/72 142/195/72 143/192/72
f 148/196/71 147/197/71 151/198/71 152/199/71
f 142/190/76 141/200/76 145/201/76 146/202/76
f 144/193/77 143/203/77 147/204/77 148/205/77
f 143/192/78 142/195/78 146/206/78 147/207/78
f 150/208/79 149/209/79 152/210/79 151/211/79
f 147/197/74 146/212/74 150/213/74 151/198/74
f 145/214/73 148/215/73 152/216/73 149/217/73
f 146/218/72 145/214/72 149/217/72 150/219/72
